<svg xmlns="http://www.w3.org/2000/svg" xmlns:xlink="http://www.w3.org/1999/xlink" viewBox="0 0 113.52 73.09"><defs><style>.cls-1{fill:none;}.cls-2{clip-path:url(#clip-path);}.cls-3{fill:url(#radial-gradient);}.cls-4{clip-path:url(#clip-path-2);}.cls-5{fill:url(#radial-gradient-2);}.cls-6{clip-path:url(#clip-path-3);}.cls-7{fill:url(#radial-gradient-3);}.cls-8{clip-path:url(#clip-path-4);}.cls-9{fill:url(#radial-gradient-4);}</style><clipPath id="clip-path"><path class="cls-1" d="M80.94,12.22a15.26,15.26,0,0,0-12,10.38c-1,4.54,5.22,8.34,12.28,10.69-4.56-13.38,5.2-20.47.67-21.1l-.33,0a4.36,4.36,0,0,0-.61,0"/></clipPath><radialGradient id="radial-gradient" cx="-425.2" cy="787.42" r="1" gradientTransform="matrix(-12.51, 0, 0, 12.51, -5235.02, -9827.7)" gradientUnits="userSpaceOnUse"><stop offset="0" stop-color="#bb623e"/><stop offset="0.27" stop-color="#b85e3b"/><stop offset="0.51" stop-color="#ae5434"/><stop offset="0.74" stop-color="#9e4127"/><stop offset="0.96" stop-color="#872814"/><stop offset="1" stop-color="#832311"/></radialGradient><clipPath id="clip-path-2"><path class="cls-1" d="M68.17,31.32A16,16,0,0,0,86.68,44a13.56,13.56,0,0,0,5.83-2.5c3.29-2.47-.6-3.58-9.51-6.25a51.53,51.53,0,0,1-4.93-1.65c-3.39-1.31-6.22-2.87-7.92-4.73a8.1,8.1,0,0,1-2.05-3.1,15.86,15.86,0,0,0,.07,5.52"/></clipPath><radialGradient id="radial-gradient-2" cx="-425.2" cy="787.42" r="1" gradientTransform="matrix(-18.42, 0, 0, 18.42, -7745.22, -14477.82)" gradientUnits="userSpaceOnUse"><stop offset="0" stop-color="#b14e2d"/><stop offset="0.57" stop-color="#b14e2d"/><stop offset="0.68" stop-color="#ae4c2c"/><stop offset="0.78" stop-color="#a34527"/><stop offset="0.86" stop-color="#913820"/><stop offset="0.95" stop-color="#792815"/><stop offset="1" stop-color="#661b0d"/></radialGradient><clipPath id="clip-path-3"><path class="cls-1" d="M96.12,37.2a3.91,3.91,0,0,0,.94,0,15.26,15.26,0,0,0,12-10.39c1-4.54-5.22-8.34-12.28-10.69,4.55,13.38-5.2,20.47-.67,21.1"/></clipPath><radialGradient id="radial-gradient-3" cx="-425.2" cy="787.42" r="1" gradientTransform="matrix(16.73, 0, 0, -16.73, 7205.28, 13201.88)" gradientUnits="userSpaceOnUse"><stop offset="0" stop-color="#ede0b6"/><stop offset="0.23" stop-color="#ede0b6"/><stop offset="0.41" stop-color="#e8dbb2"/><stop offset="0.64" stop-color="#d8cda7"/><stop offset="0.89" stop-color="#bfb695"/><stop offset="1" stop-color="#b1a98b"/></radialGradient><clipPath id="clip-path-4"><path class="cls-1" d="M91.3,5.32a13.58,13.58,0,0,0-5.83,2.5c-3.29,2.47.6,3.58,9.51,6.25a51.73,51.73,0,0,1,4.92,1.65c3.39,1.32,6.22,2.87,7.92,4.73a8.11,8.11,0,0,1,2.05,3.1,15.9,15.9,0,0,0-.07-5.51,16.08,16.08,0,0,0-15.67-13,15.85,15.85,0,0,0-2.84.26"/></clipPath><radialGradient id="radial-gradient-4" cx="-425.2" cy="787.42" r="1" gradientTransform="matrix(18.42, 0, 0, -18.42, 7923, 14526.57)" gradientUnits="userSpaceOnUse"><stop offset="0" stop-color="#ede0b6"/><stop offset="0.6" stop-color="#ede0b6"/><stop offset="0.72" stop-color="#e5d9b0"/><stop offset="0.9" stop-color="#cfc5a1"/><stop offset="0.97" stop-color="#c5bc9a"/><stop offset="1" stop-color="#c5bc9a"/></radialGradient></defs><title>Asset 1</title><g id="Layer_2" data-name="Layer 2"><g id="Layer_1-2" data-name="Layer 1"><path d="M11.47,35V50a1.27,1.27,0,0,1-2.54,0V43.39H2.54V50a1.23,1.23,0,0,1-1.26,1.26A1.24,1.24,0,0,1,0,50V35a1.23,1.23,0,0,1,1.28-1.23A1.23,1.23,0,0,1,2.54,35V41H8.93V35a1.27,1.27,0,0,1,2.54,0"/><path d="M24.12,42.45V49.3a1.4,1.4,0,0,1-1,1.35,12,12,0,0,1-3.72.58c-3,0-5.06-1.14-5.06-3.92s2.3-3.87,5.06-3.87h2.2v-1c0-.94-.7-1.69-2.13-1.69a4.6,4.6,0,0,0-2.13.43,2.6,2.6,0,0,1-1.11.36,1.18,1.18,0,0,1-1.16-1.16,1.15,1.15,0,0,1,.58-1,7.49,7.49,0,0,1,3.72-.94c2.59,0,4.72,1.31,4.72,4m-4.77,3.29c-1.5,0-2.49.39-2.49,1.62s1,1.6,2.54,1.6a8.52,8.52,0,0,0,2.23-.29V45.74Z"/><path d="M29.93,35v4.16a6.27,6.27,0,0,1,2.71-.7c2.93,0,4.55,1.72,4.55,4.82V50a1.25,1.25,0,0,1-2.49,0V43.15a2.11,2.11,0,0,0-2.35-2.37,3.89,3.89,0,0,0-2.42.85V50a1.25,1.25,0,0,1-2.49,0V35a1.25,1.25,0,0,1,2.49,0"/><path d="M50.3,43.25V50a1.25,1.25,0,0,1-2.49,0V43.15a2.14,2.14,0,0,0-2.4-2.37,8.54,8.54,0,0,0-2.37.34V50a1.25,1.25,0,0,1-2.49,0V40.54a1.44,1.44,0,0,1,1.09-1.43,12.08,12.08,0,0,1,3.77-.63c3.24,0,4.89,1.65,4.89,4.77"/><path d="M29.05,56.55a1.2,1.2,0,0,1,.73,1.16,1.12,1.12,0,0,1-1.11,1.16,2.61,2.61,0,0,1-1.06-.29A6.83,6.83,0,0,0,24.7,58c-1.38,0-2.68.73-2.68,2s.63,1.72,2,2.35l2.83,1.31c1.62.75,3.39,1.84,3.39,4.65s-2.37,4.74-5.52,4.74a10.53,10.53,0,0,1-4.5-.94A1.21,1.21,0,0,1,19.45,71a1.13,1.13,0,0,1,1.16-1.21,2.61,2.61,0,0,1,1.09.29,7.26,7.26,0,0,0,3,.65c1.74,0,3-.8,3-2.3,0-1.31-.75-1.89-2.2-2.59l-3-1.38a4.59,4.59,0,0,1-3-4.31c0-2.73,2.18-4.5,5.37-4.5a9.24,9.24,0,0,1,4.21.89"/><path d="M40.59,61.19a1.19,1.19,0,0,1,.63,1,1.09,1.09,0,0,1-1.11,1.14A2.84,2.84,0,0,1,38.9,63a4.89,4.89,0,0,0-1.84-.34c-1.45,0-2.35.87-2.35,2.57v3c0,1.69.87,2.59,2.35,2.59a4.53,4.53,0,0,0,1.86-.39,2.81,2.81,0,0,1,1.14-.34,1.1,1.1,0,0,1,1.16,1.14,1.19,1.19,0,0,1-.63,1,7.7,7.7,0,0,1-3.48.82,4.53,4.53,0,0,1-4.89-4.86v-3a4.53,4.53,0,0,1,4.89-4.86,7.42,7.42,0,0,1,3.48.85"/><path d="M45.7,56.88V61a6.27,6.27,0,0,1,2.71-.7c2.93,0,4.55,1.72,4.55,4.81v6.7a1.25,1.25,0,0,1-2.49,0V65a2.11,2.11,0,0,0-2.35-2.37,3.89,3.89,0,0,0-2.42.85v8.37a1.25,1.25,0,0,1-2.49,0v-15a1.25,1.25,0,0,1,2.49,0"/><path d="M58.64,57.1a1.45,1.45,0,1,1-1.45-1.45,1.46,1.46,0,0,1,1.45,1.45m-.22,4.48V71.86a1.18,1.18,0,0,1-1.23,1.23,1.2,1.2,0,0,1-1.26-1.23V61.58a1.2,1.2,0,0,1,1.26-1.23,1.18,1.18,0,0,1,1.23,1.23"/><path d="M69.57,61.19a1.19,1.19,0,0,1,.63,1,1.09,1.09,0,0,1-1.11,1.14A2.84,2.84,0,0,1,67.88,63,4.89,4.89,0,0,0,66,62.64c-1.45,0-2.35.87-2.35,2.57v3c0,1.69.87,2.59,2.35,2.59a4.53,4.53,0,0,0,1.86-.39A2.81,2.81,0,0,1,69,70.09a1.1,1.1,0,0,1,1.16,1.14,1.19,1.19,0,0,1-.63,1,7.7,7.7,0,0,1-3.48.82,4.53,4.53,0,0,1-4.89-4.86v-3a4.53,4.53,0,0,1,4.89-4.86,7.42,7.42,0,0,1,3.48.85"/><path d="M74.68,56.88V64.6l4.45-3.9a1.37,1.37,0,0,1,.89-.36,1.18,1.18,0,0,1,1.21,1.21,1.14,1.14,0,0,1-.44.9l-4.31,3.6,4.62,5a1.14,1.14,0,0,1,.31.82,1.18,1.18,0,0,1-1.21,1.21,1.2,1.2,0,0,1-.94-.44l-4.6-5.2v4.4a1.25,1.25,0,0,1-2.49,0v-15a1.25,1.25,0,0,1,2.49,0"/><path d="M92.65,64.31v6.85a1.4,1.4,0,0,1-1,1.35,12,12,0,0,1-3.72.58c-3,0-5.06-1.14-5.06-3.92S85.2,65.3,88,65.3h2.2v-1c0-.94-.7-1.69-2.13-1.69a4.6,4.6,0,0,0-2.13.43,2.6,2.6,0,0,1-1.11.36,1.18,1.18,0,0,1-1.16-1.16,1.15,1.15,0,0,1,.58-1,7.5,7.5,0,0,1,3.72-.94c2.59,0,4.72,1.31,4.72,4M87.89,67.6c-1.5,0-2.49.39-2.49,1.62s1,1.6,2.54,1.6a8.49,8.49,0,0,0,2.23-.29V67.6Z"/><path d="M101.17,60.51a1.14,1.14,0,0,1,1,1.19A1.12,1.12,0,0,1,101,62.83c-.36,0-.85-.15-1.45-.15a1.26,1.26,0,0,0-1.31,1.38v7.79a1.25,1.25,0,0,1-2.49,0V64a3.4,3.4,0,0,1,3.63-3.65,9.23,9.23,0,0,1,1.81.17"/><path d="M113.39,56.88V71a1.5,1.5,0,0,1-1,1.43,12,12,0,0,1-3.85.63c-3,0-4.89-1.6-4.89-4.81V65.16c0-3.17,1.89-4.81,4.64-4.81a5.82,5.82,0,0,1,2.64.7V56.88a1.25,1.25,0,0,1,2.49,0M106.11,65v3.41a2.17,2.17,0,0,0,2.39,2.4,8.71,8.71,0,0,0,2.4-.34v-7a4,4,0,0,0-2.4-.82A2.13,2.13,0,0,0,106.11,65"/><g class="cls-2"><rect class="cls-3" x="64.87" y="9.67" width="24.57" height="26.13" transform="translate(-3.14 27.41) rotate(-19.75)"/></g><g class="cls-4"><rect class="cls-5" x="66.23" y="23.4" width="31.15" height="24.6" transform="translate(-5.17 15.65) rotate(-10.59)"/></g><g class="cls-6"><rect class="cls-7" x="90.55" y="15.21" width="20.59" height="22.92" transform="translate(-2.2 10.45) rotate(-5.87)"/></g><g class="cls-8"><rect class="cls-9" x="80.72" y="2.64" width="30.91" height="23.32" transform="translate(-0.99 17.93) rotate(-10.59)"/></g></g></g></svg>